<svg width="2500" height="741" viewBox="0 0 2500 741" fill="none" xmlns="http://www.w3.org/2000/svg">
<g clip-path="url(#clip0_1_2)">
<path d="M2484.08 653.496C2484.08 662.821 2482.24 672.055 2478.67 680.67C2475.09 689.284 2469.86 697.111 2463.26 703.701C2456.66 710.292 2448.83 715.518 2440.21 719.08C2431.59 722.641 2422.35 724.47 2413.02 724.46H87.6447C68.7974 724.48 50.714 717.015 37.3713 703.707C24.0287 690.399 16.5193 672.338 16.4948 653.496V87.5782C16.5193 68.7274 24.0257 50.6569 37.3657 37.3343C50.7057 24.0117 68.7889 16.5261 87.6447 16.5212H2413C2422.33 16.5212 2431.58 18.3593 2440.2 21.9305C2448.82 25.5017 2456.65 30.736 2463.25 37.3345C2469.85 43.933 2475.08 51.7664 2478.65 60.3873C2482.22 69.0082 2484.06 78.2478 2484.06 87.5782L2484.08 653.496Z" fill="white"/>
<path d="M2413.02 740.969H87.6447C64.4271 740.964 42.1596 731.752 25.7283 715.352C9.29706 698.953 0.0441769 676.707 0 653.496L0 87.5968C0.0343472 64.3737 9.28112 42.1125 25.7119 25.6966C42.1426 9.28062 64.4156 0.0504239 87.6447 0.0308228L2413 0.0308228C2436.23 0.0602043 2458.49 9.29354 2474.92 25.7074C2491.35 42.1212 2500.6 64.3768 2500.65 87.5968V653.496C2500.68 701.744 2461.3 740.969 2413.02 740.969Z" fill="#DEDEDE"/>
<path d="M2484.08 653.496C2484.08 662.821 2482.24 672.055 2478.67 680.67C2475.09 689.284 2469.86 697.111 2463.26 703.701C2456.66 710.292 2448.83 715.518 2440.21 719.08C2431.59 722.641 2422.35 724.47 2413.02 724.46H87.6447C68.7974 724.48 50.714 717.015 37.3713 703.707C24.0287 690.399 16.5193 672.338 16.4948 653.496V87.5782C16.5193 68.7274 24.0257 50.6569 37.3657 37.3343C50.7057 24.0117 68.7889 16.5261 87.6447 16.5212H2413C2422.33 16.5212 2431.58 18.3593 2440.2 21.9305C2448.82 25.5017 2456.65 30.736 2463.25 37.3345C2469.85 43.933 2475.08 51.7664 2478.65 60.3873C2482.22 69.0082 2484.06 78.2478 2484.06 87.5782L2484.08 653.496Z" fill="black"/>
<path d="M558.376 366.6C557.839 306.882 607.286 277.829 609.547 276.477C581.543 235.658 538.138 230.081 522.884 229.637C486.429 225.801 451.067 251.445 432.497 251.445C413.556 251.445 384.958 230.007 354.137 230.637C314.476 231.249 277.372 254.206 257.022 289.854C215.025 362.542 246.347 469.359 286.583 528.113C306.71 556.906 330.229 589.016 361.013 587.886C391.13 586.663 402.38 568.709 438.724 568.709C474.735 568.709 485.299 587.886 516.694 587.164C549.017 586.663 569.366 558.259 588.789 529.225C612.049 496.263 621.39 463.763 621.761 462.096C621.019 461.836 559.006 438.157 558.376 366.6ZM499.069 190.986C515.267 170.734 526.35 143.182 523.274 115.223C499.829 116.26 470.509 131.435 453.625 151.242C438.687 168.696 425.343 197.304 428.79 224.208C455.126 226.172 482.166 210.923 499.069 190.986Z" fill="white"/>
<path d="M2413.02 0.0308228H1167.48L1655.33 740.969H2413.02C2436.24 740.95 2458.51 731.724 2474.94 715.316C2491.37 698.909 2500.62 676.657 2500.66 653.44V87.5968C2500.63 64.3753 2491.38 42.1169 2474.95 25.702C2458.52 9.28708 2436.25 0.055316 2413.02 0.0308228V0.0308228Z" fill="url(#paint0_linear_1_2)"/>
<path d="M994.598 583.754H952.509L929.453 511.326H849.314L827.352 583.754H786.375L865.791 337.176H914.83L994.598 583.754ZM922.503 480.939L901.653 416.553C899.447 409.975 895.296 394.485 889.217 370.102H888.476C886.029 380.589 882.119 396.079 876.762 416.553L856.264 480.939H922.503ZM1198.43 492.668C1198.43 522.907 1190.22 546.808 1173.78 564.355C1159.06 579.975 1140.77 587.775 1118.96 587.775C1095.4 587.775 1078.46 579.382 1068.18 562.558V655.849H1028.66V464.393C1028.66 445.402 1028.16 425.928 1027.2 405.954H1061.95L1064.15 434.136H1064.9C1078.07 412.903 1098.07 402.286 1124.91 402.286C1145.89 402.286 1163.4 410.568 1177.41 427.151C1191.41 443.771 1198.43 465.598 1198.43 492.668ZM1158.17 494.113C1158.17 476.808 1154.28 462.541 1146.46 451.294C1137.92 439.602 1126.45 433.747 1112.06 433.747C1102.31 433.747 1093.46 437.008 1085.54 443.438C1077.61 449.923 1072.42 458.39 1069.99 468.877C1068.91 472.799 1068.29 476.836 1068.16 480.902V510.567C1068.16 523.481 1072.12 534.394 1080.06 543.325C1087.99 552.219 1098.29 556.684 1110.97 556.684C1125.85 556.684 1137.44 550.922 1145.72 539.49C1154.02 528.02 1158.17 512.901 1158.17 494.113ZM1402.98 492.668C1402.98 522.907 1394.77 546.808 1378.33 564.355C1363.6 579.975 1345.33 587.775 1323.49 587.775C1299.94 587.775 1283 579.382 1272.71 562.558V655.849H1233.2V464.393C1233.2 445.402 1232.7 425.928 1231.73 405.954H1266.48L1268.69 434.136H1269.43C1282.59 412.903 1302.59 402.286 1329.44 402.286C1350.4 402.286 1367.92 410.568 1381.97 427.151C1395.94 443.771 1402.98 465.598 1402.98 492.668ZM1362.71 494.113C1362.71 476.808 1358.8 462.541 1350.98 451.294C1342.43 439.602 1331 433.747 1316.62 433.747C1306.87 433.747 1298.01 437.008 1290.06 443.438C1282.13 449.923 1276.96 458.39 1274.53 468.877C1273.32 473.769 1272.67 477.752 1272.67 480.902V510.567C1272.67 523.481 1276.66 534.394 1284.55 543.325C1292.49 552.2 1302.79 556.684 1315.51 556.684C1330.41 556.684 1341.99 550.922 1350.26 539.49C1358.56 528.02 1362.71 512.901 1362.71 494.113ZM1631.69 514.587C1631.69 535.58 1624.35 552.645 1609.76 565.819C1593.71 580.197 1571.3 587.404 1542.58 587.404C1516.04 587.404 1494.76 582.291 1478.71 572.044L1487.85 539.119C1505.18 549.384 1524.21 554.498 1544.93 554.498C1559.83 554.498 1571.42 551.126 1579.68 544.437C1587.97 537.729 1592.15 528.762 1592.15 517.57C1592.15 507.546 1588.69 499.153 1581.89 492.316C1575.05 485.497 1563.74 479.142 1547.86 473.306C1504.68 457.204 1483.07 433.655 1483.07 402.675C1483.07 382.442 1490.7 365.877 1505.94 352.926C1521.17 339.993 1541.37 333.526 1566.5 333.526C1588.95 333.526 1607.65 337.436 1622.49 345.236L1612.58 377.439C1598.6 369.879 1582.83 366.099 1565.19 366.099C1551.25 366.099 1540.32 369.527 1532.49 376.346C1525.92 382.442 1522.58 389.872 1522.58 398.691C1522.58 408.419 1526.38 416.497 1533.94 422.834C1540.5 428.67 1552.47 435.026 1569.78 441.844C1591.02 450.404 1606.63 460.373 1616.62 471.823C1626.68 483.274 1631.69 497.56 1631.69 514.587ZM1762.66 435.6H1719.11V521.925C1719.11 543.881 1726.78 554.831 1742.16 554.831C1749.23 554.831 1755.08 554.238 1759.72 552.997L1760.81 582.995C1753.02 585.904 1742.78 587.367 1730.08 587.367C1714.47 587.367 1702.28 582.606 1693.48 573.082C1684.71 563.558 1680.3 547.605 1680.3 525.149V435.526H1654.35V405.88H1680.3V373.326L1719.11 361.616V405.88H1762.66V435.6ZM1958.78 493.391C1958.78 520.72 1950.96 543.158 1935.36 560.705C1919.03 578.77 1897.31 587.775 1870.23 587.775C1844.1 587.775 1823.32 579.122 1807.83 561.835C1792.33 544.511 1784.59 522.684 1784.59 496.355C1784.59 468.803 1792.59 446.235 1808.55 428.689C1824.55 411.124 1846.08 402.341 1873.16 402.341C1899.25 402.341 1920.21 411.013 1936.08 428.318C1951.24 445.105 1958.78 466.784 1958.78 493.391ZM1917.82 494.299C1917.82 478.012 1914.3 464.041 1907.24 452.35C1898.96 438.231 1887.1 431.172 1871.73 431.172C1855.9 431.172 1843.76 438.231 1835.5 452.35C1828.42 464.041 1824.9 478.253 1824.9 495.04C1824.9 511.345 1828.42 525.352 1835.5 537.007C1844.04 551.126 1855.96 558.185 1871.4 558.185C1886.5 558.185 1898.35 550.977 1906.91 536.655C1914.17 524.685 1917.82 510.622 1917.82 494.299ZM2087.28 440.695C2083.17 439.954 2079 439.588 2074.82 439.602C2060.92 439.602 2050.17 444.827 2042.61 455.351C2036.05 464.616 2032.75 476.326 2032.75 490.463V583.754H1993.24V461.948C1993.27 443.283 1992.89 424.62 1992.09 405.973H2026.5L2027.95 439.991H2029.04C2033.23 428.3 2039.79 418.869 2048.8 411.809C2057.04 405.641 2067.06 402.3 2077.36 402.286C2081.01 402.286 2084.31 402.545 2087.24 403.008L2087.28 440.695ZM2263.99 486.442C2264.09 492.447 2263.61 498.448 2262.55 504.359H2144.01C2144.45 521.925 2150.2 535.376 2161.21 544.641C2171.2 552.904 2184.11 557.055 2199.98 557.055C2217.53 557.055 2233.54 554.275 2247.94 548.661L2254.13 576.065C2237.3 583.402 2217.44 587.052 2194.51 587.052C2166.93 587.052 2145.29 578.937 2129.53 562.743C2113.82 546.531 2105.94 524.741 2105.94 497.448C2105.94 470.656 2113.26 448.329 2127.92 430.523C2143.27 411.513 2164 402.008 2190.1 402.008C2215.73 402.008 2235.14 411.513 2248.31 430.523C2258.75 445.587 2263.99 464.264 2263.99 486.442ZM2226.31 476.196C2226.59 464.468 2224 454.369 2218.64 445.828C2211.8 434.822 2201.27 429.337 2187.17 429.337C2174.25 429.337 2163.73 434.692 2155.72 445.439C2149.14 453.98 2145.23 464.245 2144.03 476.159L2226.31 476.196Z" fill="white"/>
<path d="M837.916 250C826.926 250 817.418 249.462 809.505 248.554V129.342C820.573 127.632 831.758 126.79 842.957 126.822C888.272 126.822 909.14 149.112 909.14 185.446C909.14 227.358 884.491 250 837.916 250ZM844.551 142.108C838.435 142.108 833.227 142.478 828.909 143.368V233.991C831.244 234.361 835.729 234.528 842.031 234.528C871.721 234.528 888.624 217.63 888.624 185.983C888.624 157.764 873.334 142.108 844.551 142.108ZM974.174 250.907C948.635 250.907 932.085 231.842 932.085 205.957C932.085 178.98 948.987 159.747 975.62 159.747C1000.79 159.747 1017.71 177.905 1017.71 204.53C1017.71 231.842 1000.27 250.907 974.174 250.907ZM974.916 173.94C960.886 173.94 951.897 187.058 951.897 205.401C951.897 223.393 961.071 236.511 974.73 236.511C988.389 236.511 997.564 222.485 997.564 205.031C997.564 187.243 988.575 173.94 974.916 173.94ZM1163.35 161.544L1136.01 248.925H1118.2L1106.87 210.978C1104.06 201.696 1101.71 192.278 1099.85 182.759H1099.48C1098.05 192.283 1095.35 201.825 1092.47 210.978L1080.43 248.925H1062.43L1036.71 161.544H1056.67L1066.56 203.085C1068.9 212.979 1070.86 222.318 1072.49 231.137H1072.86C1074.29 223.782 1076.63 214.591 1080.06 203.271L1092.47 161.563H1108.3L1120.18 202.381C1123.05 212.275 1125.39 221.984 1127.21 231.156H1127.72C1128.98 222.17 1130.97 212.627 1133.65 202.381L1144.27 161.563L1163.35 161.544ZM1263.98 248.925H1244.56V198.75C1244.56 183.297 1238.63 175.552 1226.93 175.552C1215.42 175.552 1207.51 185.446 1207.51 196.952V248.925H1188.09V186.521C1188.09 178.794 1187.9 170.512 1187.36 161.526H1204.45L1205.36 175.014H1205.9C1211.12 165.676 1221.73 159.747 1233.61 159.747C1251.95 159.747 1264 173.773 1264 196.6L1263.98 248.925ZM1317.54 248.925H1298.1V121.448H1317.54V248.925ZM1388.36 250.907C1362.84 250.907 1346.27 231.842 1346.27 205.957C1346.27 178.98 1363.17 159.747 1389.79 159.747C1414.97 159.747 1431.88 177.905 1431.88 204.53C1431.9 231.842 1414.44 250.907 1388.36 250.907ZM1389.08 173.94C1375.05 173.94 1366.06 187.058 1366.06 205.401C1366.06 223.393 1375.26 236.511 1388.88 236.511C1402.56 236.511 1411.71 222.485 1411.71 205.031C1411.73 187.243 1402.76 173.94 1389.08 173.94ZM1508.46 248.925L1507.05 238.864H1506.53C1500.6 246.961 1491.94 250.907 1480.97 250.907C1465.31 250.907 1454.19 239.939 1454.19 225.19C1454.19 203.623 1472.89 192.468 1505.27 192.468V190.856C1505.27 179.35 1499.17 173.588 1487.12 173.588C1478.51 173.588 1470.95 175.756 1464.29 180.073L1460.34 167.307C1468.42 162.267 1478.51 159.747 1490.35 159.747C1513.18 159.747 1524.71 171.791 1524.71 195.896V228.08C1524.71 236.9 1525.1 243.737 1525.97 248.943L1508.46 248.925ZM1505.79 205.401C1484.22 205.401 1473.39 210.626 1473.39 223.022C1473.39 232.194 1478.97 236.678 1486.72 236.678C1496.6 236.678 1505.79 229.136 1505.79 218.89V205.401ZM1619.03 248.925L1618.12 234.899H1617.58C1612 245.497 1602.63 250.907 1589.52 250.907C1568.45 250.907 1552.84 232.379 1552.84 206.309C1552.84 178.98 1569.02 159.728 1591.12 159.728C1602.81 159.728 1611.1 163.675 1615.77 171.605H1616.15V121.448H1635.6V225.375C1635.6 233.824 1635.8 241.736 1636.32 248.925H1619.03ZM1616.15 197.508C1616.15 185.279 1608.06 174.848 1595.69 174.848C1581.29 174.848 1572.49 187.614 1572.49 205.587C1572.49 223.207 1581.63 235.269 1595.3 235.269C1607.52 235.269 1616.15 224.652 1616.15 212.072V197.508ZM1758.86 250.907C1733.34 250.907 1716.79 231.842 1716.79 205.957C1716.79 178.98 1733.69 159.747 1760.31 159.747C1785.5 159.747 1802.4 177.905 1802.4 204.53C1802.42 231.842 1784.98 250.907 1758.86 250.907ZM1759.59 173.94C1745.57 173.94 1736.59 187.058 1736.59 205.401C1736.59 223.393 1745.76 236.511 1759.4 236.511C1773.08 236.511 1782.23 222.485 1782.23 205.031C1782.27 187.243 1773.28 173.94 1759.59 173.94ZM1906.85 248.925H1887.41V198.75C1887.41 183.297 1881.48 175.552 1869.79 175.552C1858.28 175.552 1850.38 185.446 1850.38 196.952V248.925H1830.94V186.521C1830.94 178.794 1830.75 170.512 1830.22 161.526H1847.3L1848.21 175.014H1848.75C1853.96 165.676 1864.58 159.728 1876.44 159.728C1894.79 159.728 1906.85 173.755 1906.85 196.582V248.925ZM2037.53 176.108H2016.16V218.538C2016.16 229.34 2019.91 234.732 2027.47 234.732C2030.9 234.732 2033.77 234.361 2036.09 233.824L2036.62 248.573C2032.86 250.018 2027.82 250.741 2021.56 250.741C2006.25 250.741 1997.09 242.292 1997.09 220.169V176.108H1984.34V161.544H1997.09V145.536L2016.16 139.773V161.526H2037.53V176.108ZM2140.36 248.925H2120.95V199.12C2120.95 183.482 2115.04 175.57 2103.33 175.57C2093.26 175.57 2083.88 182.407 2083.88 196.248V248.925H2064.48V121.448H2083.88V173.94H2084.27C2090.39 164.416 2099.25 159.728 2110.55 159.728C2129.05 159.728 2140.36 174.107 2140.36 196.952V248.925ZM2245.7 209.904H2187.41C2187.78 226.45 2198.74 235.788 2214.95 235.788C2223.57 235.788 2231.5 234.343 2238.51 231.656L2241.53 245.145C2233.26 248.74 2223.53 250.537 2212.21 250.537C2184.87 250.537 2168.69 233.268 2168.69 206.494C2168.69 179.702 2185.26 159.562 2210.02 159.562C2232.36 159.562 2246.37 176.108 2246.37 201.103C2246.49 204.052 2246.27 207.007 2245.7 209.904ZM2227.89 196.063C2227.89 182.574 2221.09 173.05 2208.67 173.05C2197.51 173.05 2188.69 182.759 2187.43 196.063H2227.89Z" fill="white"/>
</g>
<defs>
<linearGradient id="paint0_linear_1_2" x1="1834.05" y1="742.936" x2="1834.05" y2="-1929.24" gradientUnits="userSpaceOnUse">
<stop stop-color="#1A1A1A" stop-opacity="0.1"/>
<stop offset="0.123" stop-color="#212121" stop-opacity="0.151"/>
<stop offset="0.308" stop-color="#353535" stop-opacity="0.227"/>
<stop offset="0.532" stop-color="#575757" stop-opacity="0.318"/>
<stop offset="0.783" stop-color="#858585" stop-opacity="0.421"/>
<stop offset="1" stop-color="#B3B3B3" stop-opacity="0.51"/>
</linearGradient>
<clipPath id="clip0_1_2">
<rect width="2500" height="741" fill="white"/>
</clipPath>
</defs>
</svg>
